<svg width="28" height="28" viewBox="0 0 28 28" fill="none" xmlns="http://www.w3.org/2000/svg">
<path fill-rule="evenodd" clip-rule="evenodd" d="M14.0002 3.8002C8.36689 3.8002 3.8002 8.36689 3.8002 14.0002C3.8002 16.6095 4.77999 18.99 6.39174 20.7938C7.98708 19.1148 10.7984 18.0002 14.0002 18.0002C17.202 18.0002 20.0133 19.1148 21.6087 20.7938C23.2204 18.99 24.2002 16.6095 24.2002 14.0002C24.2002 8.36689 19.6335 3.8002 14.0002 3.8002ZM2.2002 14.0002C2.2002 7.48324 7.48324 2.2002 14.0002 2.2002C20.5172 2.2002 25.8002 7.48324 25.8002 14.0002C25.8002 20.5172 20.5172 25.8002 14.0002 25.8002C7.48324 25.8002 2.2002 20.5172 2.2002 14.0002ZM18.0002 11.5002C18.0002 13.9855 16.2093 16.0002 14.0002 16.0002C11.7911 16.0002 10.0002 13.9855 10.0002 11.5002C10.0002 9.01491 11.7911 7.0002 14.0002 7.0002C16.2093 7.0002 18.0002 9.01491 18.0002 11.5002Z" fill="#999999"/>
</svg>
